
<svg
  viewBox="0 0 49.573 58.754"
  xmlns="http://www.w3.org/2000/svg"
  class="The-Infinity-font Spirit e"
>
  <g
    id="svgGroup"
    stroke-linecap="round"
    fill-rule="evenodd"
    font-size="9pt"
    stroke="#000"
    stroke-width="0"
    fill="#000"
    style="stroke: #000; stroke-width: 0; fill: #000"
  >
    <path
      d="M 49.249 33.373 L 9.937 33.373 Q 10.842 40.718 14.841 45.063 A 16.179 16.179 0 0 0 15.445 45.685 A 15.275 15.275 0 0 0 23.679 49.8 A 21.623 21.623 0 0 0 27.433 50.113 Q 32.293 50.113 36.181 49.087 Q 40.069 48.061 43.633 46.441 L 45.901 54.757 A 44.031 44.031 0 0 1 41.219 56.513 A 56.012 56.012 0 0 1 37.153 57.619 A 42.027 42.027 0 0 1 31.654 58.503 A 56.187 56.187 0 0 1 26.245 58.753 A 30.583 30.583 0 0 1 17.879 57.667 A 22.797 22.797 0 0 1 7.075 51.031 Q 0.802 44.183 0.091 32.453 A 50.895 50.895 0 0 1 0.001 29.377 A 38.187 38.187 0 0 1 0.9 20.929 A 31.147 31.147 0 0 1 3.187 14.311 A 26.613 26.613 0 0 1 8.604 6.662 A 24.718 24.718 0 0 1 12.097 3.835 A 22.732 22.732 0 0 1 23.177 0.085 A 28.302 28.302 0 0 1 25.381 0.001 A 30.838 30.838 0 0 1 31.288 0.536 Q 35.569 1.372 38.827 3.511 Q 44.173 7.021 46.873 12.961 A 30.44 30.44 0 0 1 49.493 23.613 A 36.109 36.109 0 0 1 49.573 26.029 A 81.22 81.22 0 0 1 49.259 33.261 A 74.844 74.844 0 0 1 49.249 33.373 Z M 9.829 25.489 L 40.609 25.489 A 26.304 26.304 0 0 0 40.172 20.536 Q 39.27 15.836 36.505 12.853 A 13.487 13.487 0 0 0 28.987 8.775 A 19.867 19.867 0 0 0 25.165 8.425 A 14.667 14.667 0 0 0 19.644 9.434 A 13.526 13.526 0 0 0 14.797 12.799 A 16.378 16.378 0 0 0 11.621 17.863 Q 10.71 20.087 10.209 22.811 A 34.583 34.583 0 0 0 9.829 25.489 Z"
      vector-effect="non-scaling-stroke"
    />
  </g>
</svg>
