
<svg
  width="49.913"
  height="69.089"
  viewBox="0 0 49.913 69.089"
  xmlns="http://www.w3.org/2000/svg"
  class="The-Infinity-font Spirit s"
>
  <g
    id="svgGroup"
    stroke-linecap="round"
    fill-rule="evenodd"
    font-size="9pt"
    stroke="#000"
    stroke-width="0"
    fill="#000"
    style="stroke: #000; stroke-width: 0; fill: #000"
  >
    <path
      d="M 0 62.23 L 4.826 52.705 A 23.567 23.567 0 0 0 8.818 55.405 Q 10.793 56.477 13.145 57.341 A 30.573 30.573 0 0 0 22.811 59.166 A 34.88 34.88 0 0 0 23.876 59.182 Q 30.988 59.182 34.608 56.833 A 9.46 9.46 0 0 0 36.555 55.191 A 6.416 6.416 0 0 0 38.227 50.8 A 9.046 9.046 0 0 0 37.828 48.073 A 7.889 7.889 0 0 0 36.894 46.101 A 8.108 8.108 0 0 0 35.714 44.712 Q 34.426 43.478 32.301 42.267 A 28.325 28.325 0 0 0 32.004 42.101 Q 28.792 40.323 22.989 38.285 A 131.572 131.572 0 0 0 21.717 37.846 Q 12.446 34.671 7.811 30.29 A 14.382 14.382 0 0 1 3.628 22.674 A 21.328 21.328 0 0 1 3.175 18.161 A 15.393 15.393 0 0 1 8.189 6.712 A 22.178 22.178 0 0 1 9.843 5.271 A 22.562 22.562 0 0 1 17.508 1.401 Q 20.755 0.438 24.648 0.137 A 47.66 47.66 0 0 1 28.321 0 Q 34.566 0 39.459 1.29 A 32.023 32.023 0 0 1 39.624 1.334 A 49.237 49.237 0 0 1 44.875 3.055 A 39.51 39.51 0 0 1 48.514 4.699 L 45.339 14.097 A 31.151 31.151 0 0 0 40.681 11.855 A 38.343 38.343 0 0 0 37.529 10.795 Q 33.147 9.525 27.813 9.525 A 26.202 26.202 0 0 0 24.083 9.773 Q 22.185 10.046 20.647 10.623 A 10.807 10.807 0 0 0 17.78 12.192 A 11.839 11.839 0 0 0 16.056 13.809 Q 15.163 14.849 14.738 15.958 A 5.752 5.752 0 0 0 14.351 18.034 A 6.249 6.249 0 0 0 16.25 22.545 A 8.994 8.994 0 0 0 17.018 23.241 A 12.547 12.547 0 0 0 18.669 24.345 Q 21.622 26.035 27.432 27.94 Q 40.005 32.131 44.958 37.211 Q 49.911 42.291 49.911 49.911 Q 49.911 58.482 43.242 63.57 A 21.105 21.105 0 0 1 42.736 63.945 A 25.466 25.466 0 0 1 34.637 67.721 Q 29.716 69.088 23.495 69.088 A 50.787 50.787 0 0 1 16.051 68.566 A 39.304 39.304 0 0 1 9.97 67.183 Q 4.364 65.413 0.568 62.656 A 23.15 23.15 0 0 1 0 62.23 Z"
      vector-effect="non-scaling-stroke"
    />
  </g>
</svg>
