<svg
  version="1.1"
  xmlns="http://www.w3.org/2000/svg"
  xmlns:xlink="http://www.w3.org/1999/xlink"
  viewBox="0,0,480,360"
  preserveAspectRatio="none"
>
  <g
    data-paper-data='{"isPaintingLayer":true}'
    fill="#000000"
    fill-rule="nonzero"
    stroke="#000000"
    stroke-width="0"
    stroke-linecap="butt"
    stroke-linejoin="miter"
    stroke-miterlimit="10"
    stroke-dasharray=""
    stroke-dashoffset="0"
    style="mix-blend-mode: normal"
  >
    <g>
      <animateTransform
        attributeName="transform"
        attributeType="XML"
        type="translate"
        values="-480 0;0 50;480 360;-400 480;-480 0"
        keyTimes="0;0.4;0.9;0.95;1"
        dur="10s"
        repeatCount="indefinite"
      />
      <animate attributeType="XML"
        attributeName="fill"
        values="#f00;#ff0;#0f0;#0ff;#00f;#f0f;#f00;"
        dur="5s"
        repeatCount="indefinite"/>
      <path
        d="M60,360c0,0 13.65027,-149.12916 40.85894,-208.98217c69.85527,-153.66601 115.14106,-151.01783 115.14106,-151.01783c0,0 -17.96573,23.23695 -19.79578,50.94863c-4.97966,75.40482 223.79578,309.05138 223.79578,309.05138z"
      />
      <path
        d="M86.5,360c0,0 13.65027,-138.15047 40.85894,-193.59718c69.85527,-142.35332 115.14106,-139.90009 115.14106,-139.90009c0,0 -17.96573,21.52628 -19.79578,47.19786c-4.97966,69.85361 223.79578,286.29942 223.79578,286.29942z"
      />
      <path
        d="M119,360c0,0 13.65027,-124.68875 40.85894,-174.73259c69.85527,-128.48206 115.14106,-126.26789 115.14106,-126.26789c0,0 -17.96573,19.4287 -19.79578,42.59878c-4.97966,63.0469 223.79578,258.4017 223.79578,258.4017z"
      />
    </g>
  </g>
</svg>
